<svg xmlns="http://www.w3.org/2000/svg" viewBox="0 0 59.97 36.98"><defs><style>.a{fill:#ea0029;}</style></defs><title>logo-rmgt</title><path class="a" d="M8.08,13.07H0V25.94H4V15.59H6.56a1.55,1.55,0,0,1,0,3.09H4.92l3.72,7.26h4.53L10.11,20.4C14,18.85,13.1,13.07,8.08,13.07Z"/><path class="a" d="M25.24,15.59a.92.92,0,0,0-1,.84v9.51h-3.4V16.43a.91.91,0,0,0-1-.84h-.24a.85.85,0,0,0-.9.84v9.51h-4V15.59a2.43,2.43,0,0,1,2.5-2.52H20a2.48,2.48,0,0,1,2.57,1.47,2.49,2.49,0,0,1,2.57-1.47H27.9a2.43,2.43,0,0,1,2.5,2.52V25.94h-4V16.43a.91.91,0,0,0-1-.84Z"/><path class="a" d="M32.72,17v5a4.16,4.16,0,0,0,4.19,3.94h8.47V17.58H39.05l-1.47,2.53h3.83v3.31H38.49a1.8,1.8,0,0,1-1.8-1.8V17.39a1.81,1.81,0,0,1,1.8-1.8h6.89V13.07H36.91A4.16,4.16,0,0,0,32.72,17Z"/><polygon class="a" points="59.97 13.07 47.36 13.07 47.36 15.59 51.68 15.59 51.68 25.95 55.65 25.95 55.65 15.59 59.97 15.59 59.97 13.07"/><path class="a" d="M32.37,2.73a12.94,12.94,0,0,1,11.89,7.82H45.8a18.5,18.5,0,0,0-33.41,0h8.1A12.94,12.94,0,0,1,32.37,2.73Z"/><path class="a" d="M25.82,34.25A12.94,12.94,0,0,1,15,28.47H13.53a18.5,18.5,0,0,0,31.14,0H36.6A12.92,12.92,0,0,1,25.82,34.25Z"/></svg>