<svg xmlns="http://www.w3.org/2000/svg" xmlns:xlink="http://www.w3.org/1999/xlink" id="Lager_1" x="0px" y="0px" viewBox="0 0 444.6 114.6" xml:space="preserve"><g id="Primeblad_vaugrupp_00000169549164605223364500000006544118825312909973_">	<path d="M229,36.7c0-8.4,0-16.9,0-25.3c0-2.5,0.2-2.7,2.7-2.7c10.2,0,20.4-0.1,30.6,0.1c3.8,0,7.6,0.7,10.8,2.9  c4.6,3.1,6.9,9.3,5.6,15.3c-0.8,3.8-2.8,6.7-6,8.8c-1.2,0.8-1.3,1.2,0.1,2c4.9,2.9,7.2,8.3,6.4,13.9c-0.8,5.3-2.9,9.5-8.1,11.6  c-2.5,1-5,1.5-7.7,1.5c-10.7,0-21.4,0-32.1,0.1c-1.8,0-2.3-0.7-2.3-2.4C229,53.8,229,45.2,229,36.7z M251.9,54.7  c2.7-0.2,6.2,0.4,9.6-0.5c2.8-0.8,4-1.9,4.4-4.8c0.6-4.8-1.7-7.5-6.7-7.6c-5.2-0.1-10.4,0-15.5,0c-1.4,0-2,0.5-2,1.9c0,3,0.1,6,0,9  c0,1.6,0.7,2.1,2.2,2.1C246.3,54.6,248.7,54.7,251.9,54.7z M252,31.3C252,31.3,252,31.3,252,31.3c2.8,0,5.6,0.1,8.4,0  c2.2-0.1,4.1-0.9,4.9-3.1c1.8-5.1-0.7-8.9-6.1-9.1c-5.2-0.2-10.4,0-15.6-0.1c-1.5,0-2,0.7-2,2.1c0,2.7,0,5.5,0,8.2  c0,1.4,0.6,2,1.9,1.9C246.4,31.3,249.2,31.3,252,31.3z"></path>	<path d="M141.2,23.2c6.1,0,12.2-0.1,18.3,0c3.2,0,6.4,0.2,9.5,1.2c5.6,1.7,8.7,5.8,8.8,12.1c0.2,8.8,0,17.7,0.1,26.5  c0,1.2-0.4,1.9-1.8,1.8c-2.4-0.1-4.9-0.1-7.3-0.1c-1.9,0.1-2.5-0.7-2.4-2.5c0.1-7.7,0-15.5,0-23.2c0-4.7-1.5-6.2-6.3-6.2  c-1.2,0-2.3,0-3.5,0c-2.5,0-2.6,0.1-2.6,2.6c0,8.7,0,17.4,0,26.1c0,3.2,0,3.2-3.2,3.2c-2,0-4-0.1-6,0c-1.9,0.1-2.4-0.7-2.4-2.5  c0.1-8.9,0-17.8,0-26.7c0-2.8,0-2.8-2.8-2.8c-2.4,0-4.9,0.1-7.3,0c-1.7-0.1-2.2,0.6-2.2,2.3c0.1,9,0,18,0,27.1c0,2.6,0,2.6-2.6,2.6  c-2.2,0-4.4-0.2-6.5,0c-2,0.2-2.4-0.7-2.4-2.4c0.1-7,0-14,0-20.9c0-5,0-10,0-15c0-3,0.2-3.2,3.3-3.2  C128.3,23.2,134.8,23.2,141.2,23.2C141.2,23.2,141.2,23.2,141.2,23.2z"></path>	<path d="M4.6,36.3c0-8.7,0.1-17.4,0-26.1C4.5,9,5,8.6,6.1,8.6c10.2,0,20.4-0.2,30.6,0.1c4.4,0.1,8.8,1,12.3,4.3  c4.7,4.3,6.1,9.8,5.6,15.9c-0.3,4.4-1.5,8.4-4.9,11.5c-2.2,2-4.7,3.3-7.6,3.9c-3.4,0.7-6.8,1.2-10.3,1.1c-4.3-0.1-8.6,0-12.9,0  c-1.7,0-2.3,0.5-2.3,2.2c0.1,5,0,10,0.1,15c0,1.7-0.5,2.2-2.2,2.1c-2.3-0.1-4.6,0-6.9,0c-2.9,0-3,0-3-2.9V36.3z M26.5,19  c-2.9,0-5.3,0-7.7,0c-1.5,0-2.2,0.5-2.2,2.1c0.1,4,0.1,8.1,0,12.1c0,1.4,0.5,1.9,1.9,1.9c4.2,0,8.3,0,12.5,0c1.5,0,2.9-0.2,4.3-0.7  c4-1.2,5.9-3.8,5.8-7.8c-0.1-4.1-1.9-6.6-6.2-7.3C31.9,18.9,28.9,19,26.5,19z"></path>	<path d="M395.2,62.4c0,2.5,0,2.4-2.4,2.4c-6.7,0-13.3,0-20,0c-5.4,0-10-1.9-13.7-5.9c-1.2-1.3-2.1-2.7-2.8-4.3  c-3.2-8-3.4-15.9,1.4-23.5c3.1-4.8,7.7-6.9,13.2-7.5c3.5-0.3,7-0.3,10.6-0.3c2.4,0,2.5-0.1,2.6-2.5c0.1-3.5,0.2-6.9,0.1-10.4  c0-1.4,0.5-1.8,1.8-1.8c2.6,0,5.1,0,7.7,0c1.3,0,1.6,0.5,1.6,1.7c0,8.8,0,17.5,0,26.3L395.2,62.4z M384.1,44.3c0-3.2,0-6.4,0-9.6  c0-1.4-0.5-2-1.9-2c-2.4,0.1-4.7-0.1-7.1,0.1c-4.9,0.2-7.6,2.7-8.7,7.4c-0.6,2.9-0.6,5.9,0.1,8.7c0.7,2.9,2.2,5.1,5.3,5.9  c3.7,1,7.4,0.4,11.1,0.5c1.1,0,1.1-1,1.1-1.9C384.1,50.5,384.1,47.4,384.1,44.3z"></path>	<path d="M331,64.7c-4.2,0-8.5-0.2-12.7,0c-9.6,0.4-13.8-6.4-12.6-14.9c1-6.6,5-9.7,12.8-10.3c4.7-0.3,9.5-0.1,14.2-0.3  c1.7,0,3,0.1,3.2-1c0.3-1.4-0.4-3.6-1.7-4.6c-1.9-1.3-4.1-1.4-6.3-1.4c-5.6-0.1-11.3,0-16.9,0c-2.5,0-2.7-0.2-2.7-2.6  c0-1.5,0-3.1,0-4.6c0-1.1,0.5-1.9,1.7-1.9c8.6,0.1,17.2-0.8,25.7,0.6c7.9,1.2,12.1,6.1,12.2,14.1c0.1,8.3,0,16.6,0.1,25  c0,1.4-0.4,1.9-1.9,1.9C341,64.7,336,64.8,331,64.7C331,64.8,331,64.8,331,64.7z M328,56.2c2.1,0,4.2,0,6.3,0c1.3,0,2-0.5,2-1.9  c0-0.5,0-1,0-1.5c0-5,0.4-4.6-4.7-4.6c-3.7,0-8-0.2-10.9,0.2c-2.4,0.3-3.6,1.9-3.6,4.2c0,2.1,1,3.4,3.6,3.6"></path>	<path d="M426.9,39.7c3.3,0,6.7,0,10,0c1.6,0,2.2,0.6,2.1,2.1c-0.1,1.5-0.1,3.1,0,4.6c0.1,1.7-0.7,2.2-2.3,2.2c-6.5-0.1-13,0-19.4,0  c-2.8,0-3.1,0.4-2.3,3.2c0.6,2.2,2.1,3.3,4.2,3.7c5.3,0.9,10.6,0.3,15.9,0.4c3.9,0.1,3.9,0,3.9,3.9c0,5.7,0.7,5-5,4.9  c-5.8-0.1-11.6,0.5-17.3-0.4c-6-1-10.7-4.2-12.9-10c-2.4-6.2-2.5-12.6-0.5-19c2-6.3,6.6-10,12.9-11.3c6.9-1.4,13.9-0.7,20.9-0.8  c1.2,0,1.9,0.6,1.9,1.9c0,1.7,0,3.5,0,5.2c0,1.5-0.6,2.1-2.1,2.1c-3.9,0-7.8,0-11.7,0c-2,0-3.9,0.1-5.9,0.5c-2.5,0.5-4.7,3-4.7,5.6  c0,1.2,0.9,1.2,1.7,1.2C419.9,39.7,423.4,39.7,426.9,39.7C426.9,39.7,426.9,39.7,426.9,39.7z"></path>	<path d="M209.5,39.7c3.4,0,6.8,0,10.2,0c1.5,0,2.1,0.6,2,2.1c-0.1,1.4,0,2.8,0,4.2c0,2.5-0.1,2.6-2.6,2.6c-6.3,0-12.6,0-18.8,0  c-2.8,0-3.3,0.7-2.5,3.4c0.6,1.9,1.9,3,3.8,3.4c1.4,0.3,2.9,0.5,4.4,0.5c4.6,0,9.1,0,13.7,0c1.4,0,2.1,0.5,2.1,2c0,1.7,0,3.5,0,5.2  c0,1.1-0.5,1.7-1.6,1.7c-6.8-0.2-13.7,0.6-20.5-0.4c-8.1-1.2-13.7-7.5-14.5-15.6c-0.3-3.6-0.4-7.2,0.3-10.7  c1.7-8.6,7.8-13.7,16.6-14.4c5.8-0.5,11.5-0.2,17.3-0.3c1.8,0,2.6,0.6,2.5,2.5c-0.1,1.5-0.1,3.1,0,4.6c0.1,1.6-0.6,2.2-2.2,2.2  c-3.8,0-7.7,0-11.5,0c-2,0-3.8,0-5.9,0.4c-2.5,0.5-4.8,3.1-4.7,5.6c0.1,1.4,1.1,1.3,1.9,1.3C202.7,39.7,206.1,39.7,209.5,39.7  C209.5,39.7,209.5,39.7,209.5,39.7z"></path>	<path d="M61.2,44.1c0-6.1,0-12.3,0-18.4c0-1.7,0.6-2.5,2.3-2.5c6.4,0.2,12.8-0.3,19.2,0.3c6,0.6,8.4,3.1,8.9,9.2  c0.1,2.1,0,4.2,0.1,6.3c0,1.3-0.6,1.8-1.9,1.8c-2.4,0-4.9,0-7.3,0c-1.4,0-2-0.5-2-1.9c0-1.5,0-2.9,0-4.4c0-1.6-0.8-2.6-2.3-2.8  c-1.4-0.2-2.9-0.2-4.4-0.1c-1.4,0.1-1.3,1.2-1.3,2.2c0,4.3,0,8.6,0,12.9c0,5.3,0,10.6,0,15.9c0,1.6-0.4,2.3-2.2,2.1  c-2.3-0.2-4.6-0.1-6.9,0c-1.7,0.1-2.1-0.6-2.1-2.1C61.3,56.5,61.2,50.3,61.2,44.1z"></path>	<path d="M286.7,36.8c0-8.5,0-17,0-25.5c0-2.6,0.2-2.7,2.7-2.7c2.3,0,4.6,0.1,6.9,0c1.6-0.1,2.3,0.6,2.3,2.3c-0.1,4.5,0,9,0,13.4  c0,12.5,0,24.9,0,37.4c0,3,0,3-3.1,3c-2.2,0-4.5,0.1-6.7,0.1c-1.7,0-2.1-0.6-2.1-2.1c0-8.1,0-16.1,0-24.2  C286.7,38,286.7,37.4,286.7,36.8z"></path>	<path d="M109.7,44.3c0,6.1,0,12.3,0,18.4c0,1.7-0.4,2.4-2.4,2.2c-2.5-0.2-5.1-0.2-7.7-0.1c-1.5,0.1-1.9-0.5-1.9-1.9  c0-12.5,0-24.9,0-37.4c0-1.6,0.8-2.3,2.4-2.3c2.5,0,5,0,7.5,0c1.6,0,2.1,0.7,2.1,2.2C109.7,31.7,109.7,38,109.7,44.3z"></path>	<path d="M292.9,99.2c1-4.1,2.1-8,3-11.9c0.4-1.8,1.3-2.3,3.1-2.3c1.8,0,3.1,0.1,3.7,2.3c0.8,3.5,2,7,3,10.5c0.1,0.4,0.1,1,0.7,1  c0.6,0,0.5-0.6,0.6-1c1-3.7,2-7.4,3-11.1c0.4-1.5,3.5-2.3,4.6-1.3c0.5,0.5,0.3,1.1,0.2,1.6c-1.8,5.7-3.5,11.5-5.3,17.2  c-0.5,1.8-1.9,1.6-3.3,1.6c-1.3,0-2.7,0.3-3.2-1.6c-0.9-3.4-2-6.7-3-10.1c-0.2-0.7-0.2-1.4-1-2.1c-0.7,2.8-1.4,5.4-2,8  c-0.2,0.9-0.4,1.9-0.7,2.8c-0.8,3-0.8,2.9-4,3c-1.8,0-2.6-0.7-3.1-2.4c-1.6-5.2-3.5-10.3-5.1-15.5c-0.3-0.9-1.4-2.3,0.4-2.9  c2.1-0.7,3.8,0,4.3,1.8c1.1,3.5,2.1,7.1,3.2,10.7C292.2,98.1,292.2,98.7,292.9,99.2z"></path>	<path d="M435.3,98c0.4-0.1-0.4-7-0.3-10.4c0.1-1.8,0.5-2.6,2.4-2.5c2.4,0.1,2.6,0.2,2.6,2.6c0,5.2-0.1,10.5,0,15.7  c0,1.8-0.5,2.4-2.4,2.5c-2.1,0.1-3.5-0.5-4.5-2.5c-1.7-3.3-3.6-6.5-5.5-9.7c-0.3-0.5-0.7-1.4-1.1-1.2c-0.5,0.2-0.4,1.1-0.3,1.7  c0.1,3,0.2,6,0.3,9c0,2.3-2.1,3.5-4.2,2.4c-0.7-0.4-0.8-1-0.8-1.6c0-5.7,0-11.4,0-17.1c0-1.3,0.6-1.8,1.8-1.9  c2.6-0.2,4.6,0.2,5.8,3.1c1.4,3.2,3.4,6.2,5.1,9.2C434.5,97.6,435.1,98.2,435.3,98z"></path>	<path d="M263.4,85.1c1.8,0,3.6,0,5.4,0c1.4,0,2,0.6,2,2c0,1.4-0.5,2.2-2,2.2c-2.7,0-5.4,0-8.1,0c-0.8,0-1.7,0-2.5,0.3  c-0.9,0.3-1.3,1-1.3,1.9c0,1,0.5,1.6,1.4,1.8c1.5,0.4,3.1,0.2,4.6,0.2c0.7,0,1.4,0,2.1,0c5.1,0.1,7.2,2.6,6.4,7.7  c-0.4,2.3-1.9,3.7-4.2,4.3c-3,0.8-6,0.3-9,0.4c-1.1,0-2.2,0-3.3,0c-2,0-2.5-0.5-2.4-2.5c0.1-1.2,0.6-1.5,1.7-1.4  c3.3,0.1,6.5,0.2,9.8-0.2c1.2-0.2,2.4-0.5,2.4-1.9c0-1.5-1.2-1.9-2.5-2c-2.2-0.2-4.5,0.1-6.7-0.2c-3.9-0.6-5.5-2.1-5.5-6  c0-3.9,1.9-6.1,5.7-6.3C259.5,85,261.4,85.1,263.4,85.1C263.4,85.1,263.4,85.1,263.4,85.1z"></path>	<path d="M358.3,95.4c0-2.8,0-5.6,0-8.4c0-1,0.1-1.9,1.4-1.9c3.8,0.1,7.7-0.5,11.5,0.4c2.9,0.7,5,2.3,5.8,5.3c0.9,3.3,1,6.6-0.1,9.8  c-1.2,3.5-4,4.9-7.4,5.2c-3.1,0.2-6.3,0-9.4,0.1c-1.4,0-1.7-0.8-1.7-2C358.3,101,358.3,98.2,358.3,95.4z M363,95.4  C363,95.4,363,95.4,363,95.4c0,1.6,0,3.2,0,4.8c0,1,0.3,1.6,1.4,1.7c1.7,0.1,3.5,0.2,5.1-0.3c1.2-0.4,2.3-1,2.5-2.4  c0.2-1.2,0.4-2.5,0.4-3.8c0-5.2-1.2-6.4-6.4-6.4c-0.4,0-0.9,0-1.3,0c-1.2-0.1-1.8,0.5-1.7,1.7C363,92.2,363,93.8,363,95.4z"></path>	<path d="M338,93.2c1.4,0,2.8,0,4.2,0c1.4,0,1.8,0.9,1.8,2.2c0,1.3-0.5,2-1.9,2c-2.6,0-5.3,0-7.9,0c-0.7,0-1.5-0.2-1.9,0.6  c-0.4,0.9,0,1.7,0.6,2.3c1,1.1,2.3,1.6,3.7,1.6c1.9,0,3.8,0,5.8,0c1.1,0,1.6,0.6,1.6,1.7c0,1,0,2.1-1.4,2.1  c-2.9,0.1-5.9,0.4-8.8-0.2c-4.7-0.9-7.3-4.7-7-10.3c0.1-1.6,0.1-3.2,0.7-4.7c1.4-3.6,4.2-5.2,7.9-5.4c2.2-0.2,4.5,0,6.7,0  c1.2,0,2,0.4,1.9,1.8c0,1.3-0.5,2.1-1.9,2.1c-1.9,0-3.7,0-5.6,0.1c-1.6,0.1-3,0.5-3.8,2.1c-0.7,1.5-0.5,1.9,1.2,2  C335.3,93.2,336.6,93.1,338,93.2C338,93.1,338,93.1,338,93.2z"></path>	<path d="M401.3,93.1c1.4,0,2.8,0,4.2,0c1.5,0,1.8,0.9,1.7,2.2c0,1.2-0.4,2-1.7,2c-2.7,0-5.4,0-8.1,0c-2.1,0-2.5,0.8-1.4,2.6  c0.6,1,1.5,1.5,2.6,1.7c2.1,0.5,4.2,0.2,6.3,0.2c1.3,0,2.2,0.3,2.3,1.9c0,1.7-0.8,2.1-2.3,2.1c-1.8,0-3.6,0-5.4,0  c-6.9,0.1-9.8-4.5-9.5-10.7c0.1-3.3,0.6-6.6,3.9-8.5c1.4-0.8,2.9-1.4,4.5-1.5c2.3-0.1,4.6,0,6.9,0c1.3,0,1.9,0.6,1.9,1.9  c0,1.3-0.5,2-1.9,2c-2.2,0-4.4-0.2-6.5,0.3c-0.7,0.2-1.4,0.3-1.9,0.8c-0.8,0.7-1.4,1.5-1.2,2.5c0.3,1.1,1.4,0.6,2.1,0.7  C399,93.2,400.1,93.1,401.3,93.1C401.3,93.1,401.3,93.1,401.3,93.1z"></path>	<path d="M103.9,8.6c1.4,0,2.8,0,4.2,0c1.1,0,1.6,0.5,1.6,1.6c0,2.4,0,4.8,0,7.3c0,1.3-0.6,1.8-1.9,1.8c-2.7,0-5.4,0-8,0  c-1.3,0-2-0.6-2-2c0-2.3,0-4.6,0-6.9c0-1.3,0.6-1.9,1.9-1.8C101.1,8.6,102.5,8.6,103.9,8.6z"></path>	<polygon fill="#006DB1" points="240.9,85 223.4,105.8 229.4,105.8 246.9,85  "></polygon>	<polygon fill="#FFE004" points="229.8,85 212.3,105.8 218.3,105.8 235.8,85  "></polygon></g></svg>